<svg xmlns="http://www.w3.org/2000/svg" viewBox="0 0 512 512">
  <path fill="#E34F26" d="M71.357 460.819L30.272 0h451.456l-41.129 460.746L255.724 512z"/>
  <path fill="#EF652A" d="M256 472.875l149.524-41.467 35.162-394.405H256v435.872z"/>
  <path fill="#EBEBEB" d="M256 208.59h-74.95l-5.18-58.119H256V92.223H119.855l1.35 15.173 13.882 155.192H256v-58.119zm0 146.984l-.267.074-62.677-16.926-4.007-44.882h-56.513l7.867 88.14 115.318 32.012.271-.074v-58.344z"/>
  <path fill="#FFF" d="M255.844 208.59v58.119h72.247l-6.822 76.199-65.425 17.672v58.33l120.196-33.316.9-9.965 13.799-154.646 1.438-15.455 13.82-155.173h-136.03v58.248h72.962l-5.192 58.118H255.844z"/>
</svg>
